<svg width="34" height="34" viewBox="0 0 34 34" fill="none" xmlns="http://www.w3.org/2000/svg">
<circle cx="17" cy="17" r="17" fill="white"/>
<path fill-rule="evenodd" clip-rule="evenodd" d="M14.7248 16.9987C14.7248 18.2431 15.7435 19.2557 17.0013 19.2557C18.2533 19.2557 19.272 18.2431 19.272 16.9987C19.272 15.7486 18.2533 14.7361 17.0013 14.7361C15.7435 14.7361 14.7248 15.7486 14.7248 16.9987ZM20.3476 13.5256C21.3436 14.2949 22.1915 15.4205 22.8005 16.829C22.846 16.9365 22.846 17.0609 22.8005 17.1627C21.5826 19.9797 19.4143 21.6654 17.0013 21.6654H16.9956C14.5883 21.6654 12.42 19.9797 11.2021 17.1627C11.1566 17.0609 11.1566 16.9365 11.2021 16.829C12.42 14.012 14.5883 12.332 16.9956 12.332H17.0013C18.2078 12.332 19.3517 12.7506 20.3476 13.5256ZM17.002 18.4059C17.7817 18.4059 18.4191 17.7724 18.4191 16.9975C18.4191 16.2168 17.7817 15.5833 17.002 15.5833C16.9337 15.5833 16.8655 15.589 16.8029 15.6003C16.7801 16.2225 16.2679 16.7203 15.6362 16.7203H15.6077C15.5907 16.8108 15.5793 16.9013 15.5793 16.9975C15.5793 17.7724 16.2167 18.4059 17.002 18.4059Z" fill="#4B4B4B"/>
</svg>
