<svg width="34" height="34" viewBox="0 0 34 34" fill="none" xmlns="http://www.w3.org/2000/svg">
<circle cx="17" cy="17" r="17" fill="white"/>
<path fill-rule="evenodd" clip-rule="evenodd" d="M20.3665 14.8894H22.8346C22.8346 12.9077 21.6472 11.75 19.6354 11.75H14.3672C12.3554 11.75 11.168 12.9077 11.168 14.8641V19.1359C11.168 21.0923 12.3554 22.25 14.3672 22.25H19.6354C21.6472 22.25 22.8346 21.0923 22.8346 19.1359V18.9539H20.3665C19.221 18.9539 18.2924 18.0486 18.2924 16.9318C18.2924 15.815 19.221 14.9096 20.3665 14.9096V14.8894ZM20.3664 15.7589H22.399C22.6395 15.7589 22.8345 15.949 22.8345 16.1836V17.6597C22.8317 17.8931 22.6384 18.0816 22.399 18.0844H20.4131C19.8332 18.092 19.3261 17.7049 19.1945 17.1542C19.1287 16.8123 19.2211 16.4596 19.4472 16.1905C19.6732 15.9213 20.0097 15.7634 20.3664 15.7589ZM20.4545 17.3109H20.6464C20.8927 17.3109 21.0923 17.1163 21.0923 16.8761C21.0923 16.636 20.8927 16.4414 20.6464 16.4414H20.4545C20.3368 16.44 20.2233 16.4847 20.1395 16.5654C20.0558 16.6462 20.0086 16.7562 20.0086 16.8711C20.0086 17.112 20.2074 17.3081 20.4545 17.3109ZM13.9318 14.8894H17.2243C17.4706 14.8894 17.6703 14.6947 17.6703 14.4546C17.6703 14.2145 17.4706 14.0199 17.2243 14.0199H13.9318C13.6875 14.0198 13.4887 14.2114 13.4858 14.4496C13.4858 14.6905 13.6846 14.8866 13.9318 14.8894Z" fill="#4B4B4B"/>
</svg>
