<svg width="20" height="20" viewBox="0 0 20 20" fill="none" xmlns="http://www.w3.org/2000/svg">
<path fill-rule="evenodd" clip-rule="evenodd" d="M14.1086 5.83463C14.1351 5.77557 14.1475 5.71121 14.1449 5.64657H14.1667C14.0735 3.42289 12.2374 1.66797 10.0041 1.66797C7.77083 1.66797 5.93477 3.42289 5.84157 5.64657C5.83059 5.70878 5.83059 5.77243 5.84157 5.83463H5.77643C4.70851 5.83463 3.56695 6.53961 3.23553 8.4347L2.58742 13.5969C2.05715 17.3871 4.00885 18.3346 6.55711 18.3346H13.4654C16.0063 18.3346 17.8991 16.9626 17.4277 13.5969L16.787 8.4347C16.3966 6.59267 15.2919 5.83463 14.2387 5.83463H14.1086ZM12.911 5.83463C12.8878 5.77459 12.8755 5.71091 12.8747 5.64657C12.8747 4.04866 11.5749 2.75329 9.97146 2.75329C8.36803 2.75329 7.0682 4.04866 7.0682 5.64657C7.07919 5.70878 7.07919 5.77243 7.0682 5.83463H12.911ZM7.5808 10.1251C7.17405 10.1251 6.84431 9.78573 6.84431 9.36708C6.84431 8.94843 7.17405 8.60904 7.5808 8.60904C7.98756 8.60904 8.31729 8.94843 8.31729 9.36708C8.31729 9.78573 7.98756 10.1251 7.5808 10.1251ZM11.6684 9.36708C11.6684 9.78573 11.9981 10.1251 12.4049 10.1251C12.8116 10.1251 13.1414 9.78573 13.1414 9.36708C13.1414 8.94843 12.8116 8.60904 12.4049 8.60904C11.9981 8.60904 11.6684 8.94843 11.6684 9.36708Z" fill="white"/>
</svg>
