<svg width="40" height="40" viewBox="0 0 40 40" fill="none" xmlns="http://www.w3.org/2000/svg">
<path d="M0 20C0 8.95431 8.95431 0 20 0C31.0457 0 40 8.95431 40 20C40 31.0457 31.0457 40 20 40C8.95431 40 0 31.0457 0 20Z" fill="#F3F2F7"/>
<path d="M27.0727 24.2852L23.6852 21.2052C23.5251 21.0596 23.3147 20.982 23.0984 20.9887C22.8821 20.9954 22.6769 21.0858 22.5261 21.241L20.5319 23.2918C20.0519 23.2002 19.0869 22.8993 18.0936 21.9085C17.1002 20.9143 16.7994 19.9468 16.7102 19.4702L18.7594 17.4752C18.9147 17.3244 19.0053 17.1192 19.012 16.9028C19.0187 16.6865 18.941 16.476 18.7952 16.316L15.7161 12.9293C15.5703 12.7688 15.3676 12.6714 15.1512 12.6579C14.9348 12.6443 14.7216 12.7157 14.5569 12.8568L12.7486 14.4077C12.6045 14.5523 12.5185 14.7447 12.5069 14.9485C12.4944 15.1568 12.2561 20.0918 16.0827 23.9202C19.4211 27.2577 23.6027 27.5018 24.7544 27.5018C24.9227 27.5018 25.0261 27.4968 25.0536 27.4952C25.2573 27.4838 25.4497 27.3974 25.5936 27.2527L27.1436 25.4435C27.2852 25.2794 27.3571 25.0663 27.3439 24.8499C27.3307 24.6335 27.2334 24.4308 27.0727 24.2852Z" fill="#7367F0"/>
</svg>
