<svg width="40" height="40" viewBox="0 0 40 40" fill="none" xmlns="http://www.w3.org/2000/svg">
<path d="M0 20C0 8.95431 8.95431 0 20 0C31.0457 0 40 8.95431 40 20C40 31.0457 31.0457 40 20 40C8.95431 40 0 31.0457 0 20Z" fill="#F3F2F7"/>
<path d="M20.0006 17.3951C18.567 17.3951 17.3971 18.565 17.3971 19.9986C17.3971 21.4322 18.567 22.6021 20.0006 22.6021C21.4342 22.6021 22.6041 21.4322 22.6041 19.9986C22.6041 18.565 21.4342 17.3951 20.0006 17.3951ZM27.8092 19.9986C27.8092 18.9205 27.8189 17.8521 27.7584 16.776C27.6978 15.526 27.4127 14.4166 26.4986 13.5025C25.5826 12.5865 24.4752 12.3033 23.2252 12.2428C22.1471 12.1822 21.0787 12.192 20.0025 12.192C18.9244 12.192 17.8561 12.1822 16.7799 12.2428C15.5299 12.3033 14.4205 12.5885 13.5064 13.5025C12.5904 14.4185 12.3072 15.526 12.2467 16.776C12.1861 17.8541 12.1959 18.9225 12.1959 19.9986C12.1959 21.0748 12.1861 22.1451 12.2467 23.2213C12.3072 24.4713 12.5924 25.5807 13.5064 26.4947C14.4225 27.4107 15.5299 27.6939 16.7799 27.7545C17.858 27.815 18.9264 27.8053 20.0025 27.8053C21.0807 27.8053 22.149 27.815 23.2252 27.7545C24.4752 27.6939 25.5846 27.4088 26.4986 26.4947C27.4146 25.5787 27.6978 24.4713 27.7584 23.2213C27.8209 22.1451 27.8092 21.0768 27.8092 19.9986ZM20.0006 24.0045C17.7838 24.0045 15.9947 22.2154 15.9947 19.9986C15.9947 17.7818 17.7838 15.9928 20.0006 15.9928C22.2174 15.9928 24.0064 17.7818 24.0064 19.9986C24.0064 22.2154 22.2174 24.0045 20.0006 24.0045ZM24.1705 16.7643C23.6529 16.7643 23.235 16.3463 23.235 15.8287C23.235 15.3111 23.6529 14.8932 24.1705 14.8932C24.6881 14.8932 25.1061 15.3111 25.1061 15.8287C25.1062 15.9516 25.0821 16.0733 25.0352 16.1869C24.9882 16.3005 24.9193 16.4037 24.8324 16.4906C24.7455 16.5775 24.6423 16.6464 24.5287 16.6934C24.4151 16.7403 24.2934 16.7644 24.1705 16.7643Z" fill="#7367F0"/>
</svg>
