<svg width="40" height="40" viewBox="0 0 40 40" fill="none" xmlns="http://www.w3.org/2000/svg">
<path d="M0 20C0 8.95431 8.95431 0 20 0C31.0457 0 40 8.95431 40 20C40 31.0457 31.0457 40 20 40C8.95431 40 0 31.0457 0 20Z" fill="#F3F2F7"/>
<path d="M27.1875 12.1875H12.8125C12.4668 12.1875 12.1875 12.4668 12.1875 12.8125V27.1875C12.1875 27.5332 12.4668 27.8125 12.8125 27.8125H27.1875C27.5332 27.8125 27.8125 27.5332 27.8125 27.1875V12.8125C27.8125 12.4668 27.5332 12.1875 27.1875 12.1875ZM25.3828 16.748H24.1348C23.1562 16.748 22.9668 17.2129 22.9668 17.8965V19.4023H25.3027L24.998 21.7598H22.9668V27.8125H20.5312V21.7617H18.4941V19.4023H20.5312V17.6641C20.5312 15.6465 21.7637 14.5469 23.5645 14.5469C24.4277 14.5469 25.168 14.6113 25.3848 14.6406V16.748H25.3828Z" fill="#7367F0"/>
</svg>
