<svg width="60" height="60" viewBox="0 0 60 60" fill="none" xmlns="http://www.w3.org/2000/svg">
<path d="M23.4085 11.0392C24.3794 11.0392 25.1666 10.2521 25.1666 9.28114V1.74881C25.0736 -0.583816 21.7424 -0.582057 21.6504 1.74881V9.28126C21.6504 10.2522 22.4375 11.0392 23.4085 11.0392Z" fill="#7367F0"/>
<path d="M14.6343 10.5249C15.3207 11.2113 16.434 11.2116 17.1206 10.5249C17.8072 9.83829 17.8072 8.72518 17.1206 8.03859L15.2376 6.15557C14.5511 5.46898 13.4379 5.46898 12.7513 6.15557C12.0647 6.84216 12.0647 7.95526 12.7513 8.64185L14.6343 10.5249Z" fill="#7367F0"/>
<path d="M32.1848 10.5249L34.0679 8.64185C34.7544 7.95526 34.7544 6.84216 34.0679 6.15557C33.3814 5.46898 32.2682 5.46898 31.5816 6.15557L29.6985 8.03859C29.0119 8.72518 29.0119 9.83829 29.6985 10.5249C30.3849 11.2113 31.4982 11.2116 32.1848 10.5249Z" fill="#7367F0"/>
<path d="M44.6345 26.8422C45.6385 25.8384 45.6399 24.2118 44.6345 23.2066C43.6304 22.2025 42.0042 22.2014 40.9988 23.2066L34.8768 29.3286C33.8744 30.331 33.8744 31.962 34.8768 32.9644C35.8795 33.9662 37.5106 33.9663 38.5126 32.9644L44.6341 26.8428C44.6342 26.8425 44.6344 26.8424 44.6345 26.8422Z" fill="#7367F0"/>
<path d="M44.6333 39.0864L49.2249 34.4947H49.225C50.229 33.4908 50.2304 31.8643 49.225 30.859C48.2212 29.855 46.5947 29.8535 45.5894 30.859L40.9975 35.4508C39.9954 36.4529 39.9957 38.0839 40.9979 39.0869C42.0016 40.0904 43.628 40.0915 44.6333 39.0864Z" fill="#7367F0"/>
<path d="M53.8171 38.5152C52.8222 37.5203 51.195 37.5012 50.1816 38.5144L47.1208 41.5753C46.1153 42.581 46.1168 44.2073 47.1202 45.2107C48.1364 46.2283 49.7663 46.2016 50.7551 45.2115L53.8163 42.1502L53.8172 42.1493C54.8076 41.1602 54.8332 39.53 53.8171 38.5152Z" fill="#7367F0"/>
<path d="M42.8509 43.3905C42.8509 43.3787 42.8517 43.367 42.8517 43.3551C41.2141 43.3673 39.6686 42.7307 38.5111 41.5732C37.3149 40.3763 36.7225 38.8014 36.7325 37.2298C35.159 37.2418 33.5866 36.6467 32.3895 35.4516C30.0158 33.0779 30.0158 29.2163 32.3891 26.843L49.2249 10.0083C50.1847 9.04717 50.2649 7.41121 49.2317 6.37793C48.3715 5.51787 46.7394 5.22228 45.5893 6.37254L23.8756 28.086L24.1628 28.3732C29.0677 33.2781 29.0677 41.259 24.1628 46.164C23.4762 46.8507 22.3629 46.8504 21.6765 46.164C20.9899 45.4775 20.9899 44.3643 21.6765 43.6777C25.2104 40.1437 25.2104 34.3935 21.6765 30.8595C21.6765 30.8595 20.1456 29.3277 20.1455 29.3273C19.9171 29.0985 19.7516 28.8078 19.6764 28.4817L17.6646 19.7642C17.0451 17.0796 14.2032 15.5235 11.5968 16.48C10.9038 16.7343 10.4436 17.3949 10.4443 18.1331L10.4684 43.0073L5.94658 47.5271C5.25999 48.2136 5.25999 49.3267 5.94658 50.0133L15.4168 59.4836C15.7465 59.8133 16.1936 59.9984 16.66 59.9984H34.0045C35.2684 59.9984 36.4573 59.5056 37.3522 58.6108L46.8517 49.1117C46.0269 48.8116 45.2708 48.3326 44.6324 47.6933C43.4838 46.5448 42.8509 45.0164 42.8509 43.3905Z" fill="#7367F0"/>
</svg>
