<svg width="80" height="80" viewBox="0 0 80 80" fill="none" xmlns="http://www.w3.org/2000/svg">
<path d="M47.8691 66.4648H32.13L30.4042 74.1086H17.3828V78.7961H62.6163V74.1086H49.5948L47.8691 66.4648Z" fill="#7367F0"/>
<path d="M0 57.0944C0 59.6831 2.09859 61.7819 4.6875 61.7819H75.3125C77.9014 61.7819 80 59.6831 80 57.0944V50.8477H0V57.0944Z" fill="#7367F0"/>
<path d="M75.3125 1.19922H4.6875C2.09859 1.19922 0 3.29781 0 5.88672V46.1584H80V5.88672C80 3.29797 77.9014 1.19922 75.3125 1.19922ZM21.6622 31.5752L38.4258 14.8117L41.7403 18.1262L24.9767 34.8897L21.6622 31.5752ZM41.5742 34.8897L38.2597 31.5752L55.0233 14.8117L58.3378 18.1262L41.5742 34.8897Z" fill="#7367F0"/>
</svg>
