<svg width="80" height="80" viewBox="0 0 80 80" fill="none" xmlns="http://www.w3.org/2000/svg">
<path d="M28.75 65V58.75C28.75 58.2762 29.0175 57.8437 29.4413 57.6312L32.205 56.25L29.4413 54.8688C29.0175 54.6563 28.75 54.2238 28.75 53.75V50C28.75 49.3112 28.1888 48.75 27.5 48.75H5C4.31125 48.75 3.75 49.3112 3.75 50V65C3.75 65.6887 4.31125 66.25 5 66.25H27.5C28.1888 66.25 28.75 65.6887 28.75 65ZM26.25 63.75H6.25V61.25H26.25V63.75ZM8.75 58.75V56.25H23.75V58.75H8.75ZM26.25 53.75H6.25V51.25H26.25V53.75Z" fill="#7367F0"/>
<path d="M26.25 17.5977L15.7812 25.9727C15.5525 26.1564 15.2762 26.2477 15 26.2477C14.7238 26.2477 14.4475 26.1564 14.2188 25.9739L3.75 17.5977V31.2477H26.25V17.5977Z" fill="#7367F0"/>
<path d="M23.935 16.25H6.0625L14.9987 23.3988L23.935 16.25Z" fill="#7367F0"/>
<path d="M52.4988 3.75H27.4988C24.4813 3.75 21.9563 5.90125 21.375 8.75H58.6225C58.0413 5.90125 55.5163 3.75 52.4988 3.75Z" fill="#7367F0"/>
<path d="M31.25 65C31.25 67.0675 29.5675 68.75 27.5 68.75H21.25V70C21.25 73.4462 24.0538 76.25 27.5 76.25H52.5C55.9463 76.25 58.75 73.4462 58.75 70V63.75H31.25V65ZM40 66.25C42.0675 66.25 43.75 67.9325 43.75 70C43.75 72.0675 42.0675 73.75 40 73.75C37.9325 73.75 36.25 72.0675 36.25 70C36.25 67.9325 37.9325 66.25 40 66.25Z" fill="#7367F0"/>
<path d="M40 71.25C40.6904 71.25 41.25 70.6904 41.25 70C41.25 69.3096 40.6904 68.75 40 68.75C39.3096 68.75 38.75 69.3096 38.75 70C38.75 70.6904 39.3096 71.25 40 71.25Z" fill="#7367F0"/>
<path d="M66.25 40C68.3211 40 70 38.3211 70 36.25C70 34.1789 68.3211 32.5 66.25 32.5C64.1789 32.5 62.5 34.1789 62.5 36.25C62.5 38.3211 64.1789 40 66.25 40Z" fill="#7367F0"/>
<path d="M72.5 25H60C57.9325 25 56.25 26.6825 56.25 28.75V41.25C56.25 43.3175 57.9325 45 60 45H72.5C74.5675 45 76.25 43.3175 76.25 41.25V28.75C76.25 26.6825 74.5675 25 72.5 25ZM66.25 42.5C62.8038 42.5 60 39.6962 60 36.25C60 32.8038 62.8038 30 66.25 30C69.6962 30 72.5 32.8038 72.5 36.25C72.5 39.6962 69.6962 42.5 66.25 42.5ZM73.75 30H71.25V27.5H73.75V30Z" fill="#7367F0"/>
<path d="M53.75 41.25V28.75C53.75 25.7325 55.9012 23.2075 58.75 22.6262V11.25H21.25V13.75H27.5C28.19 13.75 28.75 14.31 28.75 15V32.5C28.75 33.19 28.19 33.75 27.5 33.75H21.25V46.25H27.5C29.5675 46.25 31.25 47.9325 31.25 50V52.9775L35.5588 55.1325C35.9825 55.3438 36.25 55.7762 36.25 56.25C36.25 56.7238 35.9825 57.1562 35.5588 57.3688L31.25 59.5225V61.25H58.75V47.3737C55.9012 46.7925 53.75 44.2675 53.75 41.25Z" fill="#7367F0"/>
</svg>
