<svg width="40" height="40" viewBox="0 0 40 40" fill="none" xmlns="http://www.w3.org/2000/svg">
<path d="M0 20C0 8.95431 8.95431 0 20 0C31.0457 0 40 8.95431 40 20C40 31.0457 31.0457 40 20 40C8.95431 40 0 31.0457 0 20Z" fill="#F3F2F7"/>
<path d="M13.8683 14H27.1183C28.3683 14 28.9983 14.59 28.9983 15.79V24.21C28.9983 25.4 28.3683 26 27.1183 26H13.8683C12.6183 26 11.9883 25.4 11.9883 24.21V15.79C11.9883 14.59 12.6183 14 13.8683 14ZM20.4883 22.6L27.2283 17.07C27.4683 16.87 27.6583 16.41 27.3583 16C27.0683 15.59 26.5383 15.58 26.1883 15.83L20.4883 19.69L14.7983 15.83C14.4483 15.58 13.9183 15.59 13.6283 16C13.3283 16.41 13.5183 16.87 13.7583 17.07L20.4883 22.6Z" fill="#7367F0"/>
</svg>
